<?xml version="1.0" encoding="utf-8"?>
<!-- Generator: Adobe Illustrator 15.0.2, SVG Export Plug-In . SVG Version: 6.00 Build 0)  -->
<!DOCTYPE svg PUBLIC "-//W3C//DTD SVG 1.1//EN" "http://www.w3.org/Graphics/SVG/1.1/DTD/svg11.dtd">
<svg version="1.1" id="Main" xmlns="http://www.w3.org/2000/svg" xmlns:xlink="http://www.w3.org/1999/xlink" x="0px" y="0px"
	 width="1121px" height="565.066px" viewBox="0 157.434 1121 565.066" enable-background="new 0 157.434 1121 565.066"
	 xml:space="preserve">
<g id="environment">
	<g id="Exterior">
		<g id="surface59">
			<path fill="#646464" d="M34.938,546.246l0.949,0.949l4.316-0.738l1.371-1.633V520.64h81.555v-0.723l1.898-1.172l0.949-0.949
				v-1.896l0.945-0.945v-0.949l6.641-6.641l0.949-0.945v-0.949h0.945v-0.948h0.949v-0.948h0.949v-0.945h-0.949v0.945h-0.949v0.948
				h-0.945v0.948h-0.949l-9.484,8.53v-1.895H41.574V192.527h144.145v319.58h-27.5v0.947h-0.477l-0.473-2.844l-0.949-0.949h-0.949
				v2.846l0.938,0.477l0.012,1.422l2.848,0.474v2.37l-0.949-0.947l-0.949-0.945h-0.949v2.844l0.824,1.438l1.547,1.404h38.406v-0.723
				l1.898-1.172l0.469-1.836l-2.367-0.063l-1.238,0.375l1.238-2.27h0.949v-1.898l-3.793-1.422v-73.496h74.918v74.445l-37.934-0.479
				l-0.949-1.895h-0.949l0.398,8.797l2.922,1.633h49.785v-0.723l1.898-1.172l0.441-1.73l-2.34-0.168l-1.238,0.375l1.238-2.27h0.949
				v-1.898l-5.691-1.422v-73.496H381.07v74.445l-64.484-0.479l-0.949-1.895h-0.949l-0.395,8.27l3.715,2.16h69.229l2.371-1.422
				v-267.42l-1.424-1.426h-7.111v6.641h-80.133l-1.422-4.27v-0.945l21.887-21.809l-1.023-1.426l-0.949-0.949l0.949,0.949
				l-0.949,0.949l-0.947,0.945l-0.945,0.949l-1.898,1.898l-0.948,0.945l-0.944,0.949l-1.898,1.898l-0.948,0.945l-0.944,0.949
				l-2.849,2.848l-0.948,0.945l-0.945,0.949l-1.898,1.898l-0.949,0.945l-0.945,0.949l-1.898,1.898l-0.949,0.945l-0.469,1.965
				l-0.477-0.066v-0.949h-1.898v0.949h-1.898l-1.422,4.742h-82.027v-64.484h82.504V218.6l0.945,1.422h1.898v0.949h1.898v-0.949
				h1.895l0.949-1.422v-15.648h0.949v-10.43h79.656v20.863h7.112l1.423-1.426v-18.492h-0.949v-0.945h5.215l1.426-4.742v-0.949h0.945
				v-1.898h-0.945v1.898l-0.949-0.949l-1.283-1.281l1.283,0.332l0.949-0.945v-0.949l-0.949,0.473v-4.266H95.629v-19.441
				l-3.449-1.098l-2.238-1.273l-0.477,0.957l-3.32-0.008l0.477,0.949h-4.27v24.656H33.039v1.895h0.949v4.742h-0.949v1.898h0.949
				V544.82L34.938,546.246z M33.039,585.125l0.535,2.004l1.363,0.844h0.949l-0.949,0.945l-1.098,0.453l-0.801,2.867v8.063h0.949
				v98.621h-0.949v17.07h10.434v-0.949h5.691v0.949h289.234v-7.586h-0.949l-0.949,0.473v-2.367l0.949,0.945h1.895v0.949h0.949
				v-0.949h-0.949v-1.895l-1.422-5.691h64.961v4.27l-0.949,0.475v1.896h-0.947v0.945l-0.949,0.949l-6.637,5.689l-0.475,0.953
				l3.316-0.008l0.949-0.945h0.947l1.293-2.223l3.449-1.809v5.93l140.349-0.004v-1.896l-1.155,0.426l1.155-14.65v-0.949h-2.845
				l-0.473,0.949H472.58l0.477-0.949h1.896v-0.945l-0.949-0.947h-0.945v1.895h-61.641l-0.477,0.949h-1.896l1.422-3.793v0.949h0.949
				v-0.949h-0.949l-0.477-0.949h129.922l0.473,1.898h26.551v0.947h0.949v-0.947h31.297l-0.477-0.949h-30.82v0.949h-0.949v-0.949
				l-24.65,0.473v-30.814h-1.16l3.055-0.949v-0.949l-8.107,0.738l-1.375,1.633v26.078H411.891l-1.422-1.422v-90.563h124.229v32.716
				l0.947-0.474l0.949,0.945h1.896v0.949h0.947v-0.949h1.898l0.949-1.422v-14.225l1.422-1.422h28.449L678.84,509.734v-12.328
				l-0.949-1.422v-0.949l-5.322-0.301l-2.264,2.672v9.482L568.363,608.832h-26.078v-16.98l-36.039-0.086v0.945l1.896,1.898h1.896
				v2.844h0.949l-0.949,0.949l-1.896-0.949l-0.473,0.949h-74.918l0.473-0.949l-0.064-0.479l74.035-0.469v-0.949h-74.441l0.473-0.947
				l-0.943-1.898v-0.945l-44.574,0.484v6.625l1.426,1.426h13.75v74.914h-55.477l1.422-41.727v-0.945l-0.949-0.477V600.3h5.215
				l1.426-1.426v-7.109h-14.227v90.091H41.574v-91.513l-0.945-1.426H39.68l-0.949-0.945l-0.949-0.948h-0.945l-0.949,0.948v-0.948
				l-1.898-1.897L33.039,585.125L33.039,585.125z M37.781,545.297l-0.473-0.949h-1.422l0.949,0.949l-0.477,0.949h2.371
				L37.781,545.297z M37.781,589.867l-0.613-0.613l-0.332,0.613l-0.477,0.949h2.371L37.781,589.867z M39.68,192.527v-1.898h-3.793
				v1.898H39.68z M83.301,190.629v-4.742h-0.949v4.742H83.301z M88.992,160.285v-0.949h-0.949v0.949H88.992z M126.922,599.352
				v-0.947l-2.844,0.473v-6.164h130.395l-1.426,5.691v1.896l45.074-0.031l1.395-1.395v-7.109H95.629v7.109l1.422,1.426h27.504
				L126.922,599.352z M125.027,515.898h0.949l-0.949-0.945h-0.949l-0.656,0.371l0.656,1.521L125.027,515.898z M199.945,514.004
				v0.949h0.945l1.441-0.824l18.602-18.602l0.82-1.438v-0.949h0.949l-1.898-1.896v0.949h0.949v0.947h-0.949l-0.945,0.949
				l-0.949,0.945l-1.898,1.896l-0.945,0.949l-0.949,0.945l-2.848,2.848l-0.945,0.949l-0.949,0.945l-1.898,1.896l-0.945,0.949
				l-0.949,0.945l-1.898,1.896l-0.945,0.949l-0.949,0.945l-1.898,1.896L199.945,514.004z M202.789,192.527h-8.535v64.484h8.535
				V192.527z M231.238,512.105l-0.949,0.947L231.238,512.105z M231.238,514.953l-0.949,0.473v1.586L231.238,514.953z
				 M231.238,514.953l0.949-0.949L231.238,514.953z M285.293,514.004v0.949h0.945l1.441-0.824l18.602-18.602l0.818-1.438v-0.949
				h0.949l-1.896-1.896v0.949h0.947v0.947h-0.947l-0.945,0.949l-0.949,0.945l-1.898,1.896l-0.945,0.949l-0.949,0.945l-1.898,1.896
				l-0.945,0.949l-0.949,0.949l-0.949,0.945l-1.898,1.896l-0.945,0.949l-0.949,0.945l-1.898,1.896l-0.945,0.949l-0.949,0.945
				l-1.898,1.896L285.293,514.004z M297.621,220.027v-0.949l1.281-1.281l-3.18,1.281v0.949H297.621z M297.621,253.219v-0.949h-1.898
				v0.949l-0.375,1.238L297.621,253.219z M316.586,512.105l-0.949,0.947L316.586,512.105z M316.586,514.953l-0.949-0.479v2.535
				L316.586,514.953z M316.586,514.953l0.949-0.949L316.586,514.953z M387.707,265.547H194.254v81.555h193.453V265.547z
				 M387.707,348.047H194.254v81.555h193.453V348.047z M402.883,683.75H41.574v15.172h361.309V683.75z M405.727,625.902v-3.793
				h-0.947v3.793H405.727z M407.625,634.598v-1.107h-2.848v2.055L407.625,634.598z M431.332,594.609l-0.949-0.949v4.742l0.949-0.949
				l0.949-0.945l-0.457-1.77L431.332,594.609z M437.02,183.992v2.844h0.949v0.949l1.422,4.742h230.914v120.906l1.422,1.426h5.691
				l1.422-1.426V192.527h42.676v-4.27l1.896-3.32h-0.949v-1.895l-0.945,0.473v-4.266H439.391l-0.473,1.895l0.711,0.41l-0.711,4.332
				l-0.949,0.949l-0.008-1.422l0.957-0.477v-1.895h-0.949L437.02,183.992z M504.352,697.027v1.895h0.949v-1.895H504.352z
				 M508.145,595.559v0.949l0.613-0.613L508.145,595.559z M510.988,594.609l-0.613-0.613l-0.336,0.613H510.988v2.844l1.215,0.395
				L510.988,594.609z M535.645,697.027v0.947h0.949v-0.947H535.645z M539.438,631.594l-0.473-0.949h-1.422l0.945,0.949v1.896h0.947
				L539.438,631.594L539.438,631.594z M539.438,665.734l-0.473-0.949h-1.59L539.438,665.734l0.949,0.943L539.438,665.734z
				 M541.336,634.438v0.949h0.949v0.949h0.945v0.949h0.947v0.943h0.949v0.949h0.949v0.949h0.943v0.949h0.949v0.943h0.949v0.949
				h0.949v0.949h0.943v0.949h0.949v0.943h0.949v0.949h0.949v0.949h0.947v0.948h0.945v0.944h0.949v0.949h0.948v0.949h0.948v0.948
				h0.945v0.948h0.949v0.945h0.947v0.948h-0.947v0.948h0.947v0.949h-0.947v0.945l0.947-0.945l0.949-0.949l1.238,0.371l-1.238-2.27
				h-0.949V653.4h-0.947v-0.949h-0.949v-0.948h-0.945v-0.949h-0.948v-0.948H556.5v-0.945h-0.949v-0.948h-0.945v-0.949h-0.947v-0.948
				h-0.949v-0.945h-0.949v-0.948h-0.949v-0.948h-0.943v-0.949h-0.949v-0.944h-0.949v-0.949h-0.949v-0.948h-0.943v-0.949h-0.949
				v-0.944h-0.949v-0.948h-0.947v-0.949h-0.945v-0.949L541.336,634.438L541.336,634.438z M548.922,698.922v0.949h0.949v-0.949
				H548.922z M556.508,698.922v0.949h1.898v-0.949H556.508z M562.199,656.25l-0.949-0.949v0.949H562.199z M564.094,698.922v0.949
				h1.898v-0.949H564.094z M571.68,698.922v0.949h1.898v-0.949H571.68z M579.266,698.922v0.949h1.898v-0.949H579.266z
				 M587.801,698.922v0.949h0.949v-0.949H587.801z M595.387,698.922v0.949h1.898v-0.949H595.387z M599.184,698.922v0.949
				l4.256,0.109L599.184,698.922z M610.563,699.871v-0.949L605.34,699L610.563,699.871z M618.148,699.871v-0.949L612.926,699
				L618.148,699.871z M620.992,698.922v0.949h4.742v-0.949H620.992z M628.578,698.922v0.949l6.16,0.074L628.578,698.922z
				 M641.855,699.871v-0.949h-5.691v0.949H641.855z M649.441,699.871v-0.949L644.219,699L649.441,699.871z M652.289,698.922v0.949
				h4.738v-0.949H652.289z M659.875,698.922v0.949l5.492,0.434l-0.75,13.793v1.896l22.758-1.143v1.143l1.895-0.949v-7.586h305.359
				v-38.09l5.215-1.719l1.422,0.93l0.613-0.613l0.336,0.613l0.945,0.949l0.949,0.943l6.641,6.643l0.945,0.947l0.947,0.945
				l1.898,1.898l0.945,0.949l0.947,0.943l10.436,10.436l0.943,0.947h0.949v0.945h0.949v0.949h-0.949v0.949l1.898-1.898h-0.949
				v-0.945h-0.949v-0.947l-0.818-1.441l-26.207-26.059h-1.424v-2.371l-2.369-2.371h-10.906v37.93h-306.3v-6.164l-1.428-1.422
				h-13.271L659.875,698.922z M672.203,463.742l0.945,0.949l1.676-0.418l0.223,1.365l0.82,1.438l18.414,17.918l1.629,3.402
				l-0.949,0.947v0.949l0.949-0.949v-0.947h0.949v-2.846l-6.643-6.641l-0.947-0.945l-0.945-0.949l-1.898-1.896l-0.947-0.945
				l-0.945-0.949l-7.922-7.922l1.279,0.336l-0.711-1.486l2.135-4.203h55.477v-7.113l-1.422-1.422h-41.25v-20.863H678.84V415.38
				h-7.113l-1.422,1.422v45.771L672.203,463.742z M675.047,462.793l-0.613-0.613l-0.336,0.613l1.285,1.285L675.047,462.793z
				 M675.996,495.984h-2.848v0.947h2.848V495.984z M675.996,696.078h-5.691v2.844h5.691V696.078z M722.461,184.938h-0.945
				l-1.283,1.285l1.283-0.336l1.281,1.285L722.461,184.938z M763.238,177.352v1.898l0.895,0.469l0.055,3.324h0.949l-0.473-1.852
				l1.422-0.047l0.711,0.41l-0.711,4.332l-1.18,0.414l0.229-2.309h-0.949v2.844l0.949,0.949l0.604,4.742h319.926v313.891H954.797
				v8.535h130.396l0.473,12.328l1.896-1.898v-1.184l3.793,1.895v-1.719l3.793,1.008l-0.375-1.242l2.271,1.242h1.896l-0.473-346.133
				h-64.961v0.949l2.371,2.844h-27.027v-3.32l0.949,0.477v-0.949h-44.57v0.949l1.422,2.844h-27.025v-3.32l1.896,0.477v-0.949h-45.52
				v0.949l1.422,2.844h-27.5l0.473-2.844v-0.949h-43.621v0.949l1.424,2.844h-27.5l0.473-2.844v-0.949l-35.336,0.547l-0.699-1.496
				l-0.949-0.949L763.238,177.352L763.238,177.352z M803.07,184.938l22.758,0.477v-1.078l-22.758-0.344l-2.85,0.945l-1.279,1.285
				l1.279-0.336l2.85,0.949l22.758,0.473v-1.074l-22.758-0.348l-1.285-1.281L803.07,184.938z M827.723,184.938l-0.607-0.609
				l-0.336,0.609v0.949l1.279,1.285l-0.336-1.285l0.613-0.613L827.723,184.938z M827.723,187.785h-26.551v2.844h26.551V187.785z
				 M869.449,185.887v-0.949H868.5v0.949H869.449z M872.297,184.938l22.758,0.477v-1.047l-22.758-0.375l-1.516,0.281l1.516,2.563
				l22.758,0.473v-1.047l-22.758-0.375l-1.285-1.281L872.297,184.938z M896.953,184.938l-0.949-0.945v2.844l0.949-0.949l0.609-0.613
				L896.953,184.938z M896.953,187.785h-26.555v2.844h26.555V187.785z M940.574,184.938l-0.949-0.945v2.844l0.949-0.949h0.949
				v-0.949L940.574,184.938L940.574,184.938z M941.523,184.938l22.758-0.473v-0.949L941.523,184.938z M941.523,185.887l-0.479,0.949
				h23.234v-0.543L941.523,185.887z M966.18,183.992h-0.947v2.844h0.947V183.992z M966.18,187.785h-26.555v2.844h26.555V187.785z
				 M999.367,663.836h-0.945v1.898h0.945V663.836z M1009.801,183.992h-0.949v2.844h0.949V183.992z M1033.508,183.992h-22.758v0.945
				h22.758V183.992z M1033.508,185.887h-22.758v0.949h22.758V185.887z M1035.406,183.992h-0.949v2.844h0.949V183.992z
				 M1035.406,187.785h-26.557v2.844h26.557V187.785z M1040.145,666.68v4.742h0.949v-4.742l0.949,0.949v0.949l39.828,0.473v36.984
				l1.422,1.422h15.656l-0.008-59.742h-0.949l-0.082,1.414l-2.762-0.465h-7.588l-0.947-0.949h-0.949l0.229,13.195l-3.072-1.027
				v0.633l-40.777,1.422l-0.949,0.949l0.729,1.172l1.172,0.729l0.943-0.949v2.844l-0.943-0.943l-1.98,0.465l0.082,0.479
				L1040.145,666.68L1040.145,666.68z M1085.664,550.039v25.604h0.949l-0.023-1.426l0.973-0.473l2.846,0.473v1.426h2.844v-0.947
				h-2.117l4.018-0.949h3.793v-22.758h-0.949l-0.391,0.68l-2.453-0.68l-1.396,1.107l-3.348-1.107l2.844-0.479v-0.943l-2.844,1.422
				h-0.949l-0.473,0.943h-1.898L1085.664,550.039z M1085.664,599.352v24.656h0.949l-0.023-1.426l0.973-0.473l2.846,0.477v1.422
				h3.793v-0.949h-3.066l4.018-0.947l2.369,0.004l0.475,1.895h0.949v-24.654h-0.949l-0.078,1.412l-2.766-0.465h-7.588l-0.947-0.947
				h-0.951v-0.004H1085.664z M1093.25,598.402h-2.844v0.947h2.844V598.402z M1094.199,646.766h-3.793v0.949h3.793V646.766z
				 M1093.25,526.332h-0.945v0.949h0.945V526.332z M1097.043,192.527v-1.898h-9.48v1.898H1097.043z"/>
		</g>
	</g>
</g>
<g id="landmarks-prep">
	<polygon id="prep-shape" fill="#004466" points="1080,520.5 1080,652.5 979.75,652.5 980,686 625.5,686 625,634 766,489.333 
		766,195 953,195 953,520.5 	"/>
	<text transform="matrix(1 0 0 1 843.4756 415)" fill="#FFFFFF" font-family="'Montserrat-Regular'" font-size="19">Prep</text>
	<text transform="matrix(1 0 0 1 836.7109 437.7998)" fill="#FFFFFF" font-family="'Montserrat-Regular'" font-size="19">Space</text>
</g>
<g id="landmarks-drystorage">
	<rect id="dry-shape" x="44.5" y="195" fill="#E26629" width="138" height="314"/>
	<text transform="matrix(1 0 0 1 71.4189 367.7998)" fill="#FFFFFF" font-family="'Montserrat-Regular'" font-size="19">Storage</text>
	<text transform="matrix(1 0 0 1 92.3467 345)" fill="#FFFFFF" font-family="'Montserrat-Regular'" font-size="19">Dry</text>
</g>
<g id="landmarks-redkitchen">
	<polygon id="red-shape" fill="#B63947" points="546.5,566 447.667,566 447.667,412.666 634.047,412.666 634.047,481.5 	"/>
	<text transform="matrix(1 0 0 1 486 468.5)" fill="#FFFFFF" font-family="'Montserrat-Regular'" font-size="19">Red Kitchen</text>
</g>
<g id="landmarks-greenkitchen">
	<rect id="green-shape" x="957.667" y="195" fill="#018651" width="123.761" height="306.5"/>
	<text transform="matrix(1 0 0 1 995.1582 346)" fill="#FFFFFF" font-family="'Montserrat-Regular'" font-size="19">Green</text>
	<text transform="matrix(1 0 0 1 987.1211 368.7998)" fill="#FFFFFF" font-family="'Montserrat-Regular'" font-size="19">Kitchen</text>
</g>
<g id="landmarks-yelllowkitchen">
	<rect id="yellow-shape" x="447.667" y="195" fill="#EFA605" width="186.833" height="214.5"/>
	<text transform="matrix(1 0 0 1 470 301.5)" fill="#FFFFFF" font-family="'Montserrat-Regular'" font-size="19">Yellow Kitchen</text>
</g>
<g id="landmarks-warewashing">
	<rect id="warewashing-shape" x="44.5" y="603.5" fill="#004466" width="292" height="74.5"/>
	<text transform="matrix(1 0 0 1 125 646.5)" fill="#FFFFFF" font-family="'Montserrat-Regular'" font-size="19">Warewashing</text>
</g>
<g id="landmarks-chiller">
	<rect id="chiller-shape" x="193.5" y="264" fill="#E26629" width="196.105" height="82"/>
	<text transform="matrix(1 0 0 1 260.9727 311.5)" fill="#FFFFFF" font-family="'Montserrat-Regular'" font-size="19">Chiller</text>
</g>
<g id="landmarks-freezer">
	<rect id="freezer-shape" x="193.5" y="347.5" fill="#E26629" width="196.105" height="82"/>
	<text transform="matrix(1 0 0 1 255.52 395.5)" fill="#FFFFFF" font-family="'Montserrat-Regular'" font-size="19">Freezer</text>
</g>
</svg>
