<svg version="1.1" id="Main" xmlns="http://www.w3.org/2000/svg" xmlns:xlink="http://www.w3.org/1999/xlink" x="0px" y="0px"
	 width="1121px" height="565.066px" viewBox="0 157.434 1121 565.066" enable-background="new 0 157.434 1121 565.066"
	 xml:space="preserve">
<g>
	<rect x="571.68" y="698.922" fill="#646464" width="1.898" height="0.949"/>
	<rect x="587.801" y="698.922" fill="#646464" width="0.949" height="0.949"/>
	<rect x="595.387" y="698.922" fill="#646464" width="1.898" height="0.949"/>
	<polygon fill="#646464" points="307.1,494.089 307.1,493.14 306.152,493.14 305.207,494.089 304.258,495.034 302.36,496.931 
		301.415,497.88 300.466,498.825 298.568,500.722 297.623,501.671 296.674,502.62 295.725,503.565 293.827,505.462 292.882,506.411 
		291.933,507.356 290.035,509.253 289.09,510.202 288.141,511.147 286.243,513.044 285.293,514.004 285.293,514.953 
		286.238,514.953 287.679,514.129 306.281,495.527 	"/>
	<rect x="566.936" y="697.027" fill="#646464" width="0.949" height="0.947"/>
	<rect x="564.094" y="698.922" fill="#646464" width="1.898" height="0.949"/>
	<rect x="548.922" y="698.922" fill="#646464" width="0.949" height="0.949"/>
	<rect x="556.508" y="698.922" fill="#646464" width="1.898" height="0.949"/>
	<polygon fill="#646464" points="508.145,596.508 508.758,595.895 508.145,595.559 	"/>
	<rect x="410.467" y="696.078" fill="#646464" width="0.949" height="0.949"/>
	<polygon fill="#646464" points="567.885,696.078 567.885,697.027 599.182,697.027 598.705,696.078 	"/>
	<rect x="504.352" y="697.027" fill="#646464" width="0.949" height="1.895"/>
	<polygon fill="#646464" points="542.285,696.551 542.285,665.736 541.125,665.736 544.18,664.787 544.18,663.838 536.072,664.576 
		534.697,666.209 534.697,692.287 411.891,692.287 410.469,690.865 410.469,600.302 534.697,600.302 534.697,633.018 
		535.645,632.544 536.594,633.489 538.488,633.489 538.488,633.49 538.49,633.49 538.49,634.438 539.438,634.438 539.438,633.489 
		541.336,633.489 542.285,632.067 542.285,617.843 543.707,616.421 572.156,616.421 678.84,509.734 678.84,497.406 677.891,495.984 
		677.891,495.035 672.568,494.734 670.305,497.406 670.305,506.889 568.363,608.832 542.285,608.832 542.285,591.852 
		506.246,591.766 506.246,592.711 508.143,594.609 510.039,594.609 510.039,597.453 510.988,597.453 510.039,598.402 
		508.143,597.453 507.67,598.402 432.752,598.402 433.225,597.453 433.16,596.975 507.195,596.506 507.195,595.557 432.754,595.557 
		433.227,594.609 432.283,592.711 432.283,591.766 387.709,592.25 387.709,598.875 389.135,600.301 402.885,600.301 
		402.885,675.215 347.408,675.215 348.83,633.488 348.83,632.543 347.881,632.066 347.881,600.3 353.096,600.3 354.521,598.874 
		354.521,591.765 340.295,591.765 340.295,681.855 41.574,681.855 41.574,590.343 40.629,588.917 39.68,588.917 38.731,587.972 
		37.782,587.023 36.837,587.023 35.888,587.972 35.888,587.023 33.99,585.126 33.039,585.126 33.574,587.129 34.937,587.973 
		35.886,587.973 34.937,588.918 33.839,589.371 33.038,592.238 33.038,600.301 33.987,600.301 33.987,698.922 33.038,698.922 
		33.038,715.992 43.472,715.992 43.472,715.043 49.163,715.043 49.163,715.992 338.397,715.992 338.397,708.406 337.448,708.406 
		336.499,708.879 336.499,706.512 337.448,707.457 339.343,707.457 339.343,705.563 337.921,699.871 402.882,699.871 
		402.882,704.141 401.933,704.615 401.933,706.512 400.985,706.512 400.985,707.457 400.036,708.406 393.399,714.096 
		392.925,715.049 396.241,715.041 397.19,714.096 398.138,714.096 399.431,711.873 402.88,710.064 402.88,715.994 543.229,715.99 
		543.229,714.094 542.073,714.52 543.229,699.869 543.229,698.92 540.384,698.92 539.911,699.869 472.58,699.869 473.056,698.922 
		411.418,698.922 410.941,699.871 409.045,699.871 410.467,696.078 409.99,695.129 539.912,695.129 540.385,697.027 
		566.936,697.027 566.936,696.078 	"/>
	<rect x="535.645" y="697.027" fill="#646464" width="0.949" height="0.947"/>
	<polygon fill="#646464" points="474.953,697.975 474.004,697.027 473.059,697.027 473.059,698.92 474.953,698.92 	"/>
	<rect x="473.056" y="698.92" fill="#646464" width="0.002" height="0.002"/>
	<rect x="339.343" y="707.457" fill="#646464" width="0.949" height="0.949"/>
	<polygon fill="#646464" points="33.039,585.126 33.039,585.126 33.039,585.125 	"/>
	<polygon fill="#646464" points="306.152,491.243 306.152,492.192 307.1,492.192 307.1,493.14 308.049,493.14 	"/>
	<polygon fill="#646464" points="1098.945,550.988 1097.996,550.988 1097.605,551.668 1095.152,550.988 1093.756,552.096 
		1090.408,550.988 1089.459,550.988 1088.986,551.932 1087.088,551.932 1085.664,550.039 1085.664,575.643 1086.613,575.643 
		1086.59,574.217 1087.563,573.744 1090.408,574.217 1090.408,575.643 1093.252,575.643 1093.252,574.695 1091.135,574.695 
		1095.152,573.746 1098.945,573.746 	"/>
	<polygon fill="#646464" points="764.188,183.043 765.137,183.043 764.664,181.191 766.086,181.144 766.797,181.554 
		766.086,185.886 764.906,186.3 765.135,183.991 764.186,183.991 764.186,186.835 765.135,187.784 765.738,192.526 
		1085.664,192.526 1085.664,506.417 954.797,506.417 954.797,514.952 1085.193,514.952 1085.666,527.28 1087.563,525.382 
		1087.563,524.198 1091.355,526.093 1091.355,524.374 1095.148,525.382 1094.773,524.14 1097.045,525.382 1098.941,525.382 
		1098.469,179.249 1033.508,179.249 1033.508,180.198 1035.879,183.042 1008.852,183.042 1008.852,179.722 1009.801,180.199 
		1009.801,179.25 965.23,179.25 965.23,180.199 966.652,183.043 939.627,183.043 939.627,179.723 941.523,180.2 941.523,179.251 
		896.004,179.251 896.004,180.2 897.426,183.044 869.926,183.044 870.398,180.2 870.398,179.251 826.777,179.251 826.777,180.2 
		828.201,183.044 800.701,183.044 801.174,180.2 801.174,179.251 765.838,179.798 765.139,178.302 764.189,177.353 763.238,177.352 
		763.238,179.25 764.133,179.719 	"/>
	<rect x="1092.305" y="526.332" fill="#646464" width="0.945" height="0.949"/>
	<polygon fill="#646464" points="694.961,490.294 695.91,489.345 695.91,488.397 694.961,489.345 	"/>
	<rect x="1090.406" y="598.402" fill="#646464" width="2.844" height="0.947"/>
	<polygon fill="#646464" points="1093.252,549.566 1090.408,550.988 1093.252,550.51 	"/>
	<rect x="1090.406" y="646.766" fill="#646464" width="3.793" height="0.949"/>
	<polygon fill="#646464" points="1097.521,622.115 1097.996,624.01 1098.945,624.01 1098.945,599.355 1097.996,599.355 
		1097.918,600.768 1095.152,600.303 1087.564,600.303 1086.617,599.355 1085.666,599.355 1085.666,599.352 1085.664,599.352 
		1085.664,624.008 1086.613,624.008 1086.59,622.582 1087.563,622.109 1090.408,622.586 1090.408,624.008 1094.201,624.008 
		1094.201,623.059 1091.135,623.059 1095.152,622.111 	"/>
	<polygon fill="#646464" points="692.119,430.552 678.84,430.552 678.84,415.38 671.727,415.38 670.305,416.802 670.305,462.573 
		672.203,463.742 673.148,464.691 674.824,464.273 675.047,465.639 675.867,467.077 694.281,484.995 695.91,488.397 
		696.859,488.397 696.859,485.552 690.217,478.911 689.27,477.966 688.324,477.017 686.426,475.12 685.479,474.175 684.533,473.226 
		676.611,465.304 677.891,465.64 677.18,464.153 679.314,459.95 734.791,459.95 734.791,452.837 733.369,451.415 692.119,451.415 	
		"/>
	<polygon fill="#646464" points="437.969,187.785 439.391,192.527 670.305,192.527 670.305,313.433 671.727,314.859 
		677.418,314.859 678.84,313.433 678.84,192.527 721.516,192.527 721.516,188.257 722.376,186.75 722.797,187.172 722.659,186.255 
		723.412,184.937 722.463,184.937 722.463,183.042 721.518,183.515 721.518,179.249 439.391,179.249 438.918,181.144 
		439.629,181.554 438.918,185.886 437.969,186.835 437.961,185.413 438.918,184.936 438.918,183.041 437.969,183.041 
		437.02,183.992 437.02,186.836 437.969,186.836 	"/>
	<polygon fill="#646464" points="253.047,600.301 298.121,600.27 299.516,598.875 299.516,591.766 95.629,591.766 95.629,598.875 
		97.051,600.301 124.555,600.301 126.922,599.352 126.922,598.404 124.078,598.877 124.078,592.713 254.473,592.713 
		253.047,598.404 	"/>
	<polygon fill="#646464" points="33.988,544.82 34.938,546.246 35.887,547.195 40.203,546.457 41.574,544.824 41.574,520.64 
		123.129,520.64 123.129,519.917 125.027,518.745 125.976,517.796 125.976,515.899 126.921,514.954 126.921,514.005 
		133.562,507.364 134.511,506.419 134.511,505.47 133.562,505.47 124.078,514 124.078,512.105 41.574,512.105 41.574,192.527 
		185.719,192.527 185.719,512.106 158.219,512.106 158.219,513.054 157.742,513.054 157.269,510.21 156.32,509.261 155.371,509.261 
		155.371,512.106 156.309,512.583 156.321,514.005 159.169,514.479 159.169,516.849 158.22,515.901 157.271,514.956 
		156.322,514.956 156.322,517.8 157.146,519.238 158.693,520.643 197.099,520.643 197.099,519.92 198.997,518.748 199.466,516.912 
		197.099,516.849 195.861,517.224 197.099,514.954 198.048,514.954 198.048,513.056 194.255,511.634 194.255,438.138 
		269.173,438.138 269.173,512.583 231.239,512.104 230.29,510.21 229.341,510.21 229.739,519.007 232.661,520.64 282.446,520.64 
		282.446,519.917 284.344,518.745 284.785,517.015 282.445,516.847 281.207,517.222 282.445,514.952 283.394,514.952 
		283.394,513.054 277.703,511.632 277.703,438.136 381.07,438.136 381.07,512.581 316.586,512.103 315.637,510.208 314.688,510.208 
		314.293,518.478 318.008,520.638 387.236,520.638 389.607,519.216 389.607,431.5 190.5,431.5 190.5,263 389.607,263 
		389.607,251.796 388.184,250.37 381.072,250.37 381.072,257.011 300.939,257.011 299.517,252.741 299.517,251.796 321.404,229.987 
		320.381,228.561 319.432,229.51 318.484,230.455 317.539,231.404 315.641,233.302 314.692,234.247 313.748,235.196 311.85,237.094 
		310.901,238.039 309.957,238.988 307.108,241.836 306.16,242.781 305.215,243.73 303.317,245.628 302.368,246.573 301.423,247.522 
		299.525,249.42 298.576,250.365 298.107,252.33 297.63,252.264 297.63,251.315 295.732,251.315 295.732,252.264 293.834,252.264 
		292.412,257.006 210.385,257.006 210.385,192.522 292.889,192.522 292.889,218.6 293.834,220.022 295.722,220.022 295.722,220.027 
		295.732,220.027 295.732,220.971 297.63,220.971 297.63,220.022 299.525,220.022 300.474,218.6 300.474,202.952 301.423,202.952 
		301.423,192.522 381.079,192.522 381.079,213.385 388.191,213.385 389.614,211.959 389.614,193.467 388.665,193.467 
		388.665,192.522 393.88,192.522 395.306,187.78 395.306,186.831 394.356,185.882 393.073,184.601 394.356,184.933 395.306,183.988 
		395.306,183.039 394.356,183.512 394.356,179.246 95.629,179.246 95.629,159.805 92.18,158.707 89.942,157.434 89.465,158.391 
		86.145,158.383 86.622,159.332 82.352,159.332 82.352,183.988 33.039,183.988 33.039,185.883 33.988,185.883 33.988,190.625 
		33.039,190.625 33.039,192.523 33.988,192.523 	"/>
	<polygon fill="#646464" points="222.702,493.14 220.804,491.243 220.804,492.192 221.753,492.192 221.753,493.14 	"/>
	<polygon fill="#646464" points="219.859,494.089 218.91,495.034 217.012,496.931 216.067,497.88 215.118,498.825 212.27,501.673 
		211.325,502.622 210.376,503.567 208.478,505.464 207.533,506.413 206.584,507.358 204.686,509.255 203.741,510.204 
		202.792,511.149 200.894,513.046 199.945,514.004 199.945,514.953 200.89,514.953 202.331,514.129 220.933,495.527 
		221.753,494.089 221.753,493.14 220.804,493.14 	"/>
	<rect x="134.511" y="504.521" fill="#646464" width="0.945" height="0.948"/>
	<rect x="395.306" y="184.933" fill="#646464" width="0.945" height="1.898"/>
	<rect x="136.405" y="502.628" fill="#646464" width="0.949" height="0.945"/>
	<rect x="135.456" y="503.573" fill="#646464" width="0.949" height="0.948"/>
	<rect x="579.266" y="698.922" fill="#646464" width="1.898" height="0.949"/>
	<polygon fill="#646464" points="618.148,699.871 618.148,698.922 612.926,699 	"/>
	<polygon fill="#646464" points="628.578,699.871 634.738,699.945 628.578,698.922 	"/>
	<rect x="620.992" y="698.922" fill="#646464" width="4.742" height="0.949"/>
	<rect x="636.164" y="698.922" fill="#646464" width="5.691" height="0.949"/>
	<polygon fill="#646464" points="610.563,699.871 610.563,698.922 605.34,699 	"/>
	<rect x="557.448" y="650.554" fill="#646464" width="0.948" height="0.946"/>
	<rect x="558.396" y="651.503" fill="#646464" width="0.945" height="0.945"/>
	<polygon fill="#646464" points="649.441,699.871 649.441,698.922 644.219,699 	"/>
	<polygon fill="#646464" points="599.184,699.871 603.439,699.98 599.184,698.922 	"/>
	<rect x="559.342" y="652.451" fill="#646464" width="0.949" height="0.945"/>
	<rect x="1040.145" y="666.682" fill="#646464" width="0.949" height="4.74"/>
	<polygon fill="#646464" points="1041.094,666.682 1041.096,666.682 1041.094,666.68 	"/>
	<polygon fill="#646464" points="1098.941,647.715 1097.992,647.715 1097.91,649.129 1095.148,648.664 1087.561,648.664 
		1086.613,647.715 1085.664,647.715 1085.893,660.91 1082.82,659.883 1082.82,660.516 1042.043,661.938 1041.094,662.887 
		1041.822,664.059 1042.994,664.787 1043.938,663.838 1043.938,666.682 1042.994,665.738 1041.014,666.203 1041.096,666.682 
		1042.043,667.629 1042.043,668.578 1081.871,669.051 1081.871,706.035 1083.293,707.457 1098.949,707.457 	"/>
	<rect x="1028.762" y="694.182" fill="#646464" width="0.949" height="0.945"/>
	<rect x="652.289" y="698.922" fill="#646464" width="4.738" height="0.949"/>
	<polygon fill="#646464" points="1028.762,697.025 1029.711,696.076 1028.762,696.076 	"/>
	<polygon fill="#646464" points="1029.711,696.076 1030.66,695.127 1029.711,695.127 	"/>
	<polygon fill="#646464" points="1027.943,691.793 1001.736,665.734 1000.313,665.734 1000.313,663.363 997.943,660.992 
		987.037,660.992 987.037,698.922 680.737,698.922 680.737,692.758 679.31,691.336 666.038,691.336 659.875,698.922 
		659.875,699.871 665.367,700.305 664.617,714.098 664.617,715.994 687.375,714.852 687.375,715.994 689.27,715.045 689.27,707.459 
		994.629,707.459 994.629,669.369 999.844,667.65 1001.266,668.58 1001.879,667.967 1002.215,668.58 1003.16,669.529 
		1004.109,670.473 1010.75,677.115 1011.695,678.063 1012.643,679.008 1014.541,680.906 1015.486,681.855 1016.434,682.799 
		1026.869,693.234 1027.813,694.182 1028.762,694.182 1028.762,693.234 	"/>
	<rect x="554.605" y="647.712" fill="#646464" width="0.945" height="0.945"/>
	<rect x="546.076" y="639.182" fill="#646464" width="0.943" height="0.945"/>
	<rect x="547.969" y="641.079" fill="#646464" width="0.949" height="0.94"/>
	<rect x="545.127" y="638.232" fill="#646464" width="0.949" height="0.945"/>
	<rect x="556.5" y="649.605" fill="#646464" width="0.948" height="0.945"/>
	<rect x="544.178" y="637.288" fill="#646464" width="0.949" height="0.94"/>
	<polygon fill="#646464" points="562.188,654.34 561.238,654.34 561.238,653.4 560.291,653.4 560.291,654.342 561.238,654.342 
		561.238,655.29 560.291,655.29 560.291,656.238 561.238,656.238 561.238,657.188 562.176,656.25 562.199,656.25 562.188,656.238 
		563.426,656.609 	"/>
	<rect x="542.285" y="635.391" fill="#646464" width="0.945" height="0.945"/>
	<rect x="543.23" y="636.34" fill="#646464" width="0.947" height="0.945"/>
	<rect x="541.336" y="634.439" fill="#646464" width="0.949" height="0.949"/>
	<rect x="547.02" y="640.13" fill="#646464" width="0.949" height="0.946"/>
	<rect x="548.918" y="642.023" fill="#646464" width="0.949" height="0.945"/>
	<rect x="553.658" y="646.763" fill="#646464" width="0.947" height="0.946"/>
	<polygon fill="#646464" points="560.291,658.133 561.238,657.188 560.291,657.188 	"/>
	<rect x="555.551" y="648.66" fill="#646464" width="0.949" height="0.941"/>
	<rect x="552.709" y="645.814" fill="#646464" width="0.949" height="0.945"/>
	<rect x="549.867" y="642.973" fill="#646464" width="0.943" height="0.945"/>
	<rect x="550.811" y="643.921" fill="#646464" width="0.949" height="0.946"/>
	<rect x="551.76" y="644.869" fill="#646464" width="0.949" height="0.941"/>
</g>
<g id="landmarks-prep">
	<polygon id="prep-shape" fill="#004466" points="1080,520.5 1080,652.5 979.75,652.5 980,686 625.5,686 625,634 766,489.333 
		766,195 953,195 953,520.5 	"/>
	<text transform="matrix(1 0 0 1 843.4756 415)" fill="#FFFFFF" font-family="'Montserrat-Regular'" font-size="19">Prep</text>
	<text transform="matrix(1 0 0 1 836.7109 437.7998)" fill="#FFFFFF" font-family="'Montserrat-Regular'" font-size="19">Space</text>
</g>
<g id="landmarks-drystorage">
	<rect id="dry-shape" x="44.5" y="195" fill="#E26629" width="138" height="314"/>
	<text transform="matrix(1 0 0 1 71.4189 367.7998)" fill="#FFFFFF" font-family="'Montserrat-Regular'" font-size="19">Storage</text>
	<text transform="matrix(1 0 0 1 92.3467 345)" fill="#FFFFFF" font-family="'Montserrat-Regular'" font-size="19">Dry</text>
</g>
<g id="landmarks-redkitchen">
	<polygon id="red-shape" fill="#B63947" points="546.5,566 447.667,566 447.667,412.666 634.047,412.666 634.047,481.5 	"/>
	<text transform="matrix(1 0 0 1 486 468.5)" fill="#FFFFFF" font-family="'Montserrat-Regular'" font-size="19">Red Kitchen</text>
</g>
<g id="landmarks-greenkitchen">
	<rect id="green-shape" x="957.667" y="195" fill="#018651" width="123.761" height="306.5"/>
	<text transform="matrix(1 0 0 1 995.1582 346)" fill="#FFFFFF" font-family="'Montserrat-Regular'" font-size="19">Green</text>
	<text transform="matrix(1 0 0 1 987.1211 368.7998)" fill="#FFFFFF" font-family="'Montserrat-Regular'" font-size="19">Kitchen</text>
</g>
<g id="landmarks-yelllowkitchen">
	<rect id="yellow-shape" x="447.667" y="195" fill="#EFA605" width="186.833" height="214.5"/>
	<text transform="matrix(1 0 0 1 470 301.5)" fill="#FFFFFF" font-family="'Montserrat-Regular'" font-size="19">Yellow Kitchen</text>
</g>
<g id="landmarks-warewashing">
	<rect id="warewashing-shape" x="44.5" y="603.5" fill="#004466" width="292" height="74.5"/>
	<text transform="matrix(1 0 0 1 125 646.5)" fill="#FFFFFF" font-family="'Montserrat-Regular'" font-size="19">Warewashing</text>
</g>
<g id="landmarks-chiller">
	<rect id="chiller-shape" x="193.5" y="266" fill="#E26629" width="196.105" height="80"/>
	<text transform="matrix(1.025 0 0 1 260.9727 312.3418)" fill="#FFFFFF" font-family="'Montserrat-Regular'" font-size="18.5366">Chiller</text>
</g>
<g id="landmarks-freezer_1_">
	<rect id="freezer-shape" x="193.5" y="348.5" fill="#E26629" width="196.105" height="80.5"/>
	<text transform="matrix(1.0186 0 0 1 255.52 395.6221)" fill="#FFFFFF" font-family="'Montserrat-Regular'" font-size="18.6524">Freezer</text>
</g>
</svg>
